<svg width="327" height="45" viewBox="0 0 327 45" fill="none" xmlns="http://www.w3.org/2000/svg">
<rect width="327" height="45" rx="10" fill="#03C75A"/>
<g clip-path="url(#clip0_92_3883)">
<path d="M109.349 23.0627L103.417 14.5H98.5V30.5H103.651V21.936L109.583 30.5H114.5V14.5H109.349V23.0627Z" fill="white"/>
</g>
<path d="M138.77 19.918H135.368V18.604H138.77V13.87H140.3V28.486H138.77V19.918ZM143.468 29.26H141.938V13.528H143.468V29.26ZM137.69 24.742C136.574 25.012 134.432 25.228 132.47 25.264H130.976V15.22H132.56V23.896C134.108 23.896 136.376 23.734 137.456 23.428L137.69 24.742ZM158.736 29.26H157.134V13.528H158.736V29.26ZM146.316 20.26C146.316 17.146 147.576 14.716 150.366 14.716C153.156 14.716 154.398 17.146 154.398 20.278C154.398 23.392 153.156 25.84 150.366 25.84C147.576 25.84 146.316 23.392 146.316 20.26ZM152.814 20.278C152.814 17.848 151.986 16.084 150.366 16.084C148.764 16.084 147.936 17.848 147.936 20.278C147.936 22.708 148.764 24.454 150.366 24.454C151.986 24.454 152.814 22.708 152.814 20.278ZM172.744 20.638H169.918V19.288H172.744V13.528H174.328V29.26H172.744V20.638ZM169.216 25.3H161.818V14.806H163.384V18.766H167.614V14.788H169.216V25.3ZM167.614 24.004V20.026H163.384V24.004H167.614ZM195.837 27.262H181.635V25.966H187.899V23.482H183.345V18.424H192.489V16.12H183.309V14.824H194.073V19.72H184.929V22.186H194.505V23.482H189.501V25.966H195.837V27.262ZM211.411 26.974H197.209V25.678H211.411V26.974ZM209.521 15.31C209.521 18.892 209.251 22.51 208.783 24.544L207.235 24.346C207.631 22.834 207.901 18.964 207.901 16.588H198.685V15.31H209.521ZM225.69 24.958H224.088V13.528H225.69V24.958ZM226.05 28.774H215.34V23.878H216.942V27.496H226.05V28.774ZM217.338 14.59C219.768 14.59 221.55 16.264 221.55 18.514C221.55 20.782 219.768 22.348 217.338 22.348C214.926 22.348 213.144 20.782 213.144 18.532C213.144 16.264 214.926 14.59 217.338 14.59ZM217.338 15.958C215.862 15.958 214.818 17.038 214.818 18.496C214.818 19.936 215.862 21.016 217.338 21.016C218.886 21.016 219.858 19.954 219.858 18.514C219.858 17.02 218.886 15.958 217.338 15.958Z" fill="white"/>
<defs>
<clipPath id="clip0_92_3883">
<rect width="16" height="16" fill="white" transform="translate(98.5 14.5)"/>
</clipPath>
</defs>
</svg>
