<svg width="327" height="45" viewBox="0 0 327 45" fill="none" xmlns="http://www.w3.org/2000/svg">
<rect width="327" height="45" rx="10" fill="white"/>
<rect width="24" height="24" transform="translate(57.5 10.5)" fill="white"/>
<path fill-rule="evenodd" clip-rule="evenodd" d="M80.54 22.7615C80.54 21.946 80.4668 21.1619 80.3309 20.4092H69.5V24.8576H75.6891C75.4225 26.2951 74.6123 27.513 73.3943 28.3285V31.214H77.1109C79.2855 29.2119 80.54 26.2637 80.54 22.7615Z" fill="#4285F4"/>
<path fill-rule="evenodd" clip-rule="evenodd" d="M69.4999 33.9996C72.6049 33.9996 75.2081 32.9698 77.1108 31.2134L73.3943 28.328C72.3645 29.018 71.0472 29.4257 69.4999 29.4257C66.5047 29.4257 63.9695 27.4028 63.0652 24.6846H59.2231V27.6641C61.1154 31.4225 65.0045 33.9996 69.4999 33.9996Z" fill="#34A853"/>
<path fill-rule="evenodd" clip-rule="evenodd" d="M63.0652 24.6855C62.8352 23.9955 62.7045 23.2584 62.7045 22.5005C62.7045 21.7425 62.8352 21.0055 63.0652 20.3155V17.3359H59.2232C58.4443 18.8884 58 20.6448 58 22.5005C58 24.3562 58.4443 26.1125 59.2232 27.665L63.0652 24.6855Z" fill="#FBBC05"/>
<path fill-rule="evenodd" clip-rule="evenodd" d="M69.4999 15.5739C71.1883 15.5739 72.7043 16.1541 73.8961 17.2936L77.1945 13.9952C75.2029 12.1395 72.5997 11 69.4999 11C65.0045 11 61.1154 13.577 59.2231 17.3355L63.0652 20.315C63.9695 17.5968 66.5047 15.5739 69.4999 15.5739Z" fill="#EA4335"/>
<path d="M105.426 25.3379C105.426 25.0449 105.38 24.7845 105.289 24.5566C105.204 24.3288 105.051 24.1204 104.83 23.9316C104.609 23.7428 104.296 23.5605 103.893 23.3848C103.495 23.2025 102.988 23.0169 102.369 22.8281C101.692 22.6198 101.067 22.3887 100.494 22.1348C99.9277 21.8743 99.4329 21.5749 99.0098 21.2363C98.5866 20.8913 98.2578 20.4974 98.0234 20.0547C97.7891 19.6055 97.6719 19.0879 97.6719 18.502C97.6719 17.9225 97.7923 17.3952 98.0332 16.9199C98.2806 16.4447 98.6289 16.0345 99.0781 15.6895C99.5339 15.3379 100.071 15.0677 100.689 14.8789C101.308 14.6836 101.992 14.5859 102.74 14.5859C103.795 14.5859 104.703 14.7812 105.465 15.1719C106.233 15.5625 106.822 16.0866 107.232 16.7441C107.649 17.4017 107.857 18.1276 107.857 18.9219H105.426C105.426 18.4531 105.325 18.0397 105.123 17.6816C104.928 17.3171 104.628 17.0306 104.225 16.8223C103.827 16.6139 103.323 16.5098 102.711 16.5098C102.132 16.5098 101.65 16.5977 101.266 16.7734C100.882 16.9492 100.595 17.1868 100.406 17.4863C100.217 17.7858 100.123 18.1243 100.123 18.502C100.123 18.7689 100.185 19.013 100.309 19.2344C100.432 19.4492 100.621 19.651 100.875 19.8398C101.129 20.0221 101.448 20.1947 101.832 20.3574C102.216 20.5202 102.669 20.6764 103.189 20.8262C103.977 21.0605 104.664 21.321 105.25 21.6074C105.836 21.8874 106.324 22.2064 106.715 22.5645C107.105 22.9225 107.398 23.3294 107.594 23.7852C107.789 24.2344 107.887 24.7454 107.887 25.3184C107.887 25.9173 107.766 26.4577 107.525 26.9395C107.285 27.4147 106.939 27.8216 106.49 28.1602C106.048 28.4922 105.514 28.7493 104.889 28.9316C104.27 29.1074 103.58 29.1953 102.818 29.1953C102.135 29.1953 101.461 29.1042 100.797 28.9219C100.139 28.7396 99.5404 28.4629 99 28.0918C98.4596 27.7142 98.0299 27.2454 97.7109 26.6855C97.3919 26.1191 97.2324 25.4583 97.2324 24.7031H99.6836C99.6836 25.1654 99.7617 25.5592 99.918 25.8848C100.081 26.2103 100.305 26.4772 100.592 26.6855C100.878 26.8874 101.21 27.0371 101.588 27.1348C101.972 27.2324 102.382 27.2812 102.818 27.2812C103.391 27.2812 103.87 27.1999 104.254 27.0371C104.645 26.8743 104.938 26.6465 105.133 26.3535C105.328 26.0605 105.426 25.722 105.426 25.3379ZM112.34 18.4336V29H109.977V18.4336H112.34ZM109.82 15.6602C109.82 15.3021 109.938 15.0059 110.172 14.7715C110.413 14.5306 110.745 14.4102 111.168 14.4102C111.585 14.4102 111.913 14.5306 112.154 14.7715C112.395 15.0059 112.516 15.3021 112.516 15.6602C112.516 16.0117 112.395 16.3047 112.154 16.5391C111.913 16.7734 111.585 16.8906 111.168 16.8906C110.745 16.8906 110.413 16.7734 110.172 16.5391C109.938 16.3047 109.82 16.0117 109.82 15.6602ZM121.686 18.4336H123.824V28.707C123.824 29.6576 123.622 30.4648 123.219 31.1289C122.815 31.793 122.252 32.2975 121.529 32.6426C120.807 32.9941 119.97 33.1699 119.02 33.1699C118.616 33.1699 118.167 33.1113 117.672 32.9941C117.184 32.877 116.708 32.6882 116.246 32.4277C115.79 32.1738 115.41 31.8385 115.104 31.4219L116.207 30.0352C116.585 30.4844 117.001 30.8132 117.457 31.0215C117.913 31.2298 118.391 31.334 118.893 31.334C119.433 31.334 119.892 31.2331 120.27 31.0312C120.654 30.8359 120.95 30.5462 121.158 30.1621C121.367 29.778 121.471 29.3092 121.471 28.7559V20.8262L121.686 18.4336ZM114.508 23.834V23.6289C114.508 22.8281 114.605 22.099 114.801 21.4414C114.996 20.7773 115.276 20.2077 115.641 19.7324C116.005 19.2507 116.448 18.8828 116.969 18.6289C117.49 18.3685 118.079 18.2383 118.736 18.2383C119.42 18.2383 120.003 18.362 120.484 18.6094C120.973 18.8568 121.38 19.2116 121.705 19.6738C122.031 20.1296 122.285 20.6764 122.467 21.3145C122.656 21.946 122.796 22.6491 122.887 23.4238V24.0781C122.802 24.8333 122.659 25.5234 122.457 26.1484C122.255 26.7734 121.988 27.3138 121.656 27.7695C121.324 28.2253 120.914 28.5768 120.426 28.8242C119.944 29.0716 119.374 29.1953 118.717 29.1953C118.072 29.1953 117.49 29.0618 116.969 28.7949C116.454 28.528 116.012 28.1536 115.641 27.6719C115.276 27.1901 114.996 26.6237 114.801 25.9727C114.605 25.3151 114.508 24.6022 114.508 23.834ZM116.861 23.6289V23.834C116.861 24.3158 116.907 24.765 116.998 25.1816C117.096 25.5983 117.242 25.9661 117.438 26.2852C117.639 26.5977 117.893 26.8451 118.199 27.0273C118.512 27.2031 118.88 27.291 119.303 27.291C119.856 27.291 120.309 27.1738 120.66 26.9395C121.018 26.7051 121.292 26.3893 121.48 25.9922C121.676 25.5885 121.812 25.1393 121.891 24.6445V22.877C121.852 22.4928 121.77 22.1348 121.646 21.8027C121.529 21.4707 121.37 21.181 121.168 20.9336C120.966 20.6797 120.712 20.4844 120.406 20.3477C120.1 20.2044 119.739 20.1328 119.322 20.1328C118.899 20.1328 118.531 20.224 118.219 20.4062C117.906 20.5885 117.649 20.8392 117.447 21.1582C117.252 21.4772 117.105 21.8483 117.008 22.2715C116.91 22.6947 116.861 23.1471 116.861 23.6289ZM128.6 20.6895V29H126.246V18.4336H128.463L128.6 20.6895ZM128.18 23.3262L127.418 23.3164C127.424 22.5677 127.529 21.8809 127.73 21.2559C127.939 20.6309 128.225 20.0938 128.59 19.6445C128.961 19.1953 129.404 18.8503 129.918 18.6094C130.432 18.362 131.005 18.2383 131.637 18.2383C132.145 18.2383 132.604 18.3099 133.014 18.4531C133.43 18.5898 133.785 18.8145 134.078 19.127C134.378 19.4395 134.605 19.8464 134.762 20.3477C134.918 20.8424 134.996 21.4512 134.996 22.1738V29H132.633V22.1641C132.633 21.6562 132.558 21.2559 132.408 20.9629C132.265 20.6634 132.053 20.4518 131.773 20.3281C131.5 20.1979 131.158 20.1328 130.748 20.1328C130.344 20.1328 129.983 20.2174 129.664 20.3867C129.345 20.556 129.075 20.7871 128.854 21.0801C128.639 21.373 128.473 21.7116 128.355 22.0957C128.238 22.4798 128.18 22.89 128.18 23.3262ZM145.23 14.7812V29H142.779V14.7812H145.23ZM150.377 20.6895V29H148.023V18.4336H150.24L150.377 20.6895ZM149.957 23.3262L149.195 23.3164C149.202 22.5677 149.306 21.8809 149.508 21.2559C149.716 20.6309 150.003 20.0938 150.367 19.6445C150.738 19.1953 151.181 18.8503 151.695 18.6094C152.21 18.362 152.783 18.2383 153.414 18.2383C153.922 18.2383 154.381 18.3099 154.791 18.4531C155.208 18.5898 155.562 18.8145 155.855 19.127C156.155 19.4395 156.383 19.8464 156.539 20.3477C156.695 20.8424 156.773 21.4512 156.773 22.1738V29H154.41V22.1641C154.41 21.6562 154.335 21.2559 154.186 20.9629C154.042 20.6634 153.831 20.4518 153.551 20.3281C153.277 20.1979 152.936 20.1328 152.525 20.1328C152.122 20.1328 151.76 20.2174 151.441 20.3867C151.122 20.556 150.852 20.7871 150.631 21.0801C150.416 21.373 150.25 21.7116 150.133 22.0957C150.016 22.4798 149.957 22.89 149.957 23.3262ZM167.027 26.6562L169.469 18.4336H170.973L170.562 20.8945L168.102 29H166.754L167.027 26.6562ZM165.592 18.4336L167.496 26.6953L167.652 29H166.148L163.287 18.4336H165.592ZM173.258 26.5977L175.104 18.4336H177.398L174.547 29H173.043L173.258 26.5977ZM171.227 18.4336L173.639 26.5586L173.941 29H172.594L170.104 20.8848L169.693 18.4336H171.227ZM181.52 18.4336V29H179.156V18.4336H181.52ZM179 15.6602C179 15.3021 179.117 15.0059 179.352 14.7715C179.592 14.5306 179.924 14.4102 180.348 14.4102C180.764 14.4102 181.093 14.5306 181.334 14.7715C181.575 15.0059 181.695 15.3021 181.695 15.6602C181.695 16.0117 181.575 16.3047 181.334 16.5391C181.093 16.7734 180.764 16.8906 180.348 16.8906C179.924 16.8906 179.592 16.7734 179.352 16.5391C179.117 16.3047 179 16.0117 179 15.6602ZM188.941 18.4336V20.1523H182.984V18.4336H188.941ZM184.703 15.8457H187.057V26.0801C187.057 26.4056 187.102 26.6562 187.193 26.832C187.291 27.0013 187.424 27.1152 187.594 27.1738C187.763 27.2324 187.962 27.2617 188.189 27.2617C188.352 27.2617 188.508 27.252 188.658 27.2324C188.808 27.2129 188.928 27.1934 189.02 27.1738L189.029 28.9707C188.834 29.0293 188.606 29.0814 188.346 29.127C188.092 29.1725 187.799 29.1953 187.467 29.1953C186.926 29.1953 186.448 29.1009 186.031 28.9121C185.615 28.7168 185.289 28.401 185.055 27.9648C184.82 27.5286 184.703 26.9492 184.703 26.2266V15.8457ZM193.082 14V29H190.738V14H193.082ZM192.672 23.3262L191.91 23.3164C191.917 22.5872 192.018 21.9134 192.213 21.2949C192.415 20.6764 192.695 20.1393 193.053 19.6836C193.417 19.2214 193.854 18.8665 194.361 18.6191C194.869 18.3652 195.432 18.2383 196.051 18.2383C196.572 18.2383 197.04 18.3099 197.457 18.4531C197.88 18.5964 198.245 18.8275 198.551 19.1465C198.857 19.459 199.088 19.8691 199.244 20.377C199.407 20.8783 199.488 21.4902 199.488 22.2129V29H197.125V22.1934C197.125 21.6855 197.05 21.2819 196.9 20.9824C196.757 20.6829 196.546 20.4681 196.266 20.3379C195.986 20.2012 195.644 20.1328 195.24 20.1328C194.817 20.1328 194.443 20.2174 194.117 20.3867C193.798 20.556 193.531 20.7871 193.316 21.0801C193.102 21.373 192.939 21.7116 192.828 22.0957C192.724 22.4798 192.672 22.89 192.672 23.3262ZM218.004 21.7344V27.1641C217.802 27.431 217.486 27.724 217.057 28.043C216.633 28.3555 216.07 28.6257 215.367 28.8535C214.664 29.0814 213.788 29.1953 212.74 29.1953C211.848 29.1953 211.031 29.0456 210.289 28.7461C209.547 28.4401 208.906 27.9941 208.365 27.4082C207.831 26.8223 207.418 26.1094 207.125 25.2695C206.832 24.4232 206.686 23.4596 206.686 22.3789V21.3926C206.686 20.3184 206.819 19.3613 207.086 18.5215C207.359 17.6751 207.75 16.959 208.258 16.373C208.766 15.7871 209.378 15.3444 210.094 15.0449C210.816 14.7389 211.633 14.5859 212.545 14.5859C213.71 14.5859 214.674 14.7812 215.436 15.1719C216.204 15.556 216.796 16.0898 217.213 16.7734C217.63 17.457 217.893 18.2383 218.004 19.1172H215.602C215.523 18.6224 215.37 18.1797 215.143 17.7891C214.921 17.3984 214.602 17.0924 214.186 16.8711C213.775 16.6432 213.242 16.5293 212.584 16.5293C212.018 16.5293 211.52 16.6367 211.09 16.8516C210.66 17.0664 210.302 17.3822 210.016 17.7988C209.736 18.2155 209.524 18.7233 209.381 19.3223C209.238 19.9212 209.166 20.6048 209.166 21.373V22.3789C209.166 23.1602 209.247 23.8535 209.41 24.459C209.579 25.0645 209.82 25.5755 210.133 25.9922C210.452 26.4089 210.839 26.7246 211.295 26.9395C211.751 27.1478 212.265 27.252 212.838 27.252C213.398 27.252 213.857 27.2064 214.215 27.1152C214.573 27.0176 214.856 26.9036 215.064 26.7734C215.279 26.6367 215.445 26.5065 215.562 26.3828V23.5605H212.604V21.7344H218.004ZM220.035 23.834V23.6094C220.035 22.8477 220.146 22.1413 220.367 21.4902C220.589 20.8327 220.908 20.263 221.324 19.7812C221.747 19.293 222.262 18.9154 222.867 18.6484C223.479 18.375 224.169 18.2383 224.938 18.2383C225.712 18.2383 226.402 18.375 227.008 18.6484C227.62 18.9154 228.137 19.293 228.561 19.7812C228.984 20.263 229.306 20.8327 229.527 21.4902C229.749 22.1413 229.859 22.8477 229.859 23.6094V23.834C229.859 24.5957 229.749 25.3021 229.527 25.9531C229.306 26.6042 228.984 27.1738 228.561 27.6621C228.137 28.1439 227.623 28.5215 227.018 28.7949C226.412 29.0618 225.725 29.1953 224.957 29.1953C224.182 29.1953 223.489 29.0618 222.877 28.7949C222.271 28.5215 221.757 28.1439 221.334 27.6621C220.911 27.1738 220.589 26.6042 220.367 25.9531C220.146 25.3021 220.035 24.5957 220.035 23.834ZM222.389 23.6094V23.834C222.389 24.3092 222.438 24.7585 222.535 25.1816C222.633 25.6048 222.786 25.9759 222.994 26.2949C223.202 26.6139 223.469 26.8646 223.795 27.0469C224.12 27.2292 224.508 27.3203 224.957 27.3203C225.393 27.3203 225.771 27.2292 226.09 27.0469C226.415 26.8646 226.682 26.6139 226.891 26.2949C227.099 25.9759 227.252 25.6048 227.35 25.1816C227.454 24.7585 227.506 24.3092 227.506 23.834V23.6094C227.506 23.1406 227.454 22.6979 227.35 22.2812C227.252 21.8581 227.096 21.4837 226.881 21.1582C226.673 20.8327 226.406 20.5788 226.08 20.3965C225.761 20.2077 225.38 20.1133 224.938 20.1133C224.495 20.1133 224.111 20.2077 223.785 20.3965C223.466 20.5788 223.202 20.8327 222.994 21.1582C222.786 21.4837 222.633 21.8581 222.535 22.2812C222.438 22.6979 222.389 23.1406 222.389 23.6094ZM231.383 23.834V23.6094C231.383 22.8477 231.493 22.1413 231.715 21.4902C231.936 20.8327 232.255 20.263 232.672 19.7812C233.095 19.293 233.609 18.9154 234.215 18.6484C234.827 18.375 235.517 18.2383 236.285 18.2383C237.06 18.2383 237.75 18.375 238.355 18.6484C238.967 18.9154 239.485 19.293 239.908 19.7812C240.331 20.263 240.654 20.8327 240.875 21.4902C241.096 22.1413 241.207 22.8477 241.207 23.6094V23.834C241.207 24.5957 241.096 25.3021 240.875 25.9531C240.654 26.6042 240.331 27.1738 239.908 27.6621C239.485 28.1439 238.971 28.5215 238.365 28.7949C237.76 29.0618 237.073 29.1953 236.305 29.1953C235.53 29.1953 234.837 29.0618 234.225 28.7949C233.619 28.5215 233.105 28.1439 232.682 27.6621C232.258 27.1738 231.936 26.6042 231.715 25.9531C231.493 25.3021 231.383 24.5957 231.383 23.834ZM233.736 23.6094V23.834C233.736 24.3092 233.785 24.7585 233.883 25.1816C233.98 25.6048 234.133 25.9759 234.342 26.2949C234.55 26.6139 234.817 26.8646 235.143 27.0469C235.468 27.2292 235.855 27.3203 236.305 27.3203C236.741 27.3203 237.118 27.2292 237.438 27.0469C237.763 26.8646 238.03 26.6139 238.238 26.2949C238.447 25.9759 238.6 25.6048 238.697 25.1816C238.801 24.7585 238.854 24.3092 238.854 23.834V23.6094C238.854 23.1406 238.801 22.6979 238.697 22.2812C238.6 21.8581 238.443 21.4837 238.229 21.1582C238.02 20.8327 237.753 20.5788 237.428 20.3965C237.109 20.2077 236.728 20.1133 236.285 20.1133C235.842 20.1133 235.458 20.2077 235.133 20.3965C234.814 20.5788 234.55 20.8327 234.342 21.1582C234.133 21.4837 233.98 21.8581 233.883 22.2812C233.785 22.6979 233.736 23.1406 233.736 23.6094ZM249.947 18.4336H252.086V28.707C252.086 29.6576 251.884 30.4648 251.48 31.1289C251.077 31.793 250.514 32.2975 249.791 32.6426C249.068 32.9941 248.232 33.1699 247.281 33.1699C246.878 33.1699 246.428 33.1113 245.934 32.9941C245.445 32.877 244.97 32.6882 244.508 32.4277C244.052 32.1738 243.671 31.8385 243.365 31.4219L244.469 30.0352C244.846 30.4844 245.263 30.8132 245.719 31.0215C246.174 31.2298 246.653 31.334 247.154 31.334C247.695 31.334 248.154 31.2331 248.531 31.0312C248.915 30.8359 249.212 30.5462 249.42 30.1621C249.628 29.778 249.732 29.3092 249.732 28.7559V20.8262L249.947 18.4336ZM242.77 23.834V23.6289C242.77 22.8281 242.867 22.099 243.062 21.4414C243.258 20.7773 243.538 20.2077 243.902 19.7324C244.267 19.2507 244.71 18.8828 245.23 18.6289C245.751 18.3685 246.34 18.2383 246.998 18.2383C247.682 18.2383 248.264 18.362 248.746 18.6094C249.234 18.8568 249.641 19.2116 249.967 19.6738C250.292 20.1296 250.546 20.6764 250.729 21.3145C250.917 21.946 251.057 22.6491 251.148 23.4238V24.0781C251.064 24.8333 250.921 25.5234 250.719 26.1484C250.517 26.7734 250.25 27.3138 249.918 27.7695C249.586 28.2253 249.176 28.5768 248.688 28.8242C248.206 29.0716 247.636 29.1953 246.979 29.1953C246.334 29.1953 245.751 29.0618 245.23 28.7949C244.716 28.528 244.273 28.1536 243.902 27.6719C243.538 27.1901 243.258 26.6237 243.062 25.9727C242.867 25.3151 242.77 24.6022 242.77 23.834ZM245.123 23.6289V23.834C245.123 24.3158 245.169 24.765 245.26 25.1816C245.357 25.5983 245.504 25.9661 245.699 26.2852C245.901 26.5977 246.155 26.8451 246.461 27.0273C246.773 27.2031 247.141 27.291 247.564 27.291C248.118 27.291 248.57 27.1738 248.922 26.9395C249.28 26.7051 249.553 26.3893 249.742 25.9922C249.938 25.5885 250.074 25.1393 250.152 24.6445V22.877C250.113 22.4928 250.032 22.1348 249.908 21.8027C249.791 21.4707 249.632 21.181 249.43 20.9336C249.228 20.6797 248.974 20.4844 248.668 20.3477C248.362 20.2044 248.001 20.1328 247.584 20.1328C247.161 20.1328 246.793 20.224 246.48 20.4062C246.168 20.5885 245.911 20.8392 245.709 21.1582C245.514 21.4772 245.367 21.8483 245.27 22.2715C245.172 22.6947 245.123 23.1471 245.123 23.6289ZM257.047 14V29H254.684V14H257.047ZM264.283 29.1953C263.502 29.1953 262.796 29.0684 262.164 28.8145C261.539 28.554 261.005 28.1927 260.562 27.7305C260.126 27.2682 259.791 26.7246 259.557 26.0996C259.322 25.4746 259.205 24.8008 259.205 24.0781V23.6875C259.205 22.8607 259.326 22.112 259.566 21.4414C259.807 20.7708 260.143 20.1979 260.572 19.7227C261.002 19.2409 261.51 18.873 262.096 18.6191C262.682 18.3652 263.316 18.2383 264 18.2383C264.755 18.2383 265.416 18.3652 265.982 18.6191C266.549 18.873 267.018 19.2311 267.389 19.6934C267.766 20.1491 268.046 20.6927 268.229 21.3242C268.417 21.9557 268.512 22.6523 268.512 23.4141V24.4199H260.348V22.7305H266.188V22.5449C266.174 22.1217 266.09 21.7246 265.934 21.3535C265.784 20.9824 265.553 20.6829 265.24 20.4551C264.928 20.2272 264.511 20.1133 263.99 20.1133C263.6 20.1133 263.251 20.1979 262.945 20.3672C262.646 20.5299 262.395 20.7676 262.193 21.0801C261.992 21.3926 261.835 21.7702 261.725 22.2129C261.62 22.6491 261.568 23.1406 261.568 23.6875V24.0781C261.568 24.5404 261.63 24.9701 261.754 25.3672C261.884 25.7578 262.073 26.0996 262.32 26.3926C262.568 26.6855 262.867 26.9167 263.219 27.0859C263.57 27.2487 263.971 27.3301 264.42 27.3301C264.986 27.3301 265.491 27.2161 265.934 26.9883C266.376 26.7604 266.76 26.4382 267.086 26.0215L268.326 27.2227C268.098 27.5547 267.802 27.8737 267.438 28.1797C267.073 28.4792 266.627 28.7233 266.1 28.9121C265.579 29.1009 264.973 29.1953 264.283 29.1953Z" fill="black" fill-opacity="0.54"/>
</svg>
