<svg width="327" height="45" viewBox="0 0 327 45" fill="none" xmlns="http://www.w3.org/2000/svg">
<g filter="url(#filter0_b_92_3882)">
<rect width="327" height="45" rx="10" fill="#FEE500"/>
<g clip-path="url(#clip0_92_3882)">
<path fill-rule="evenodd" clip-rule="evenodd" d="M118.5 14.0996C113.529 14.0996 109.5 17.2126 109.5 21.0519C109.5 23.4396 111.058 25.5446 113.432 26.7966L112.433 30.4441C112.345 30.7664 112.713 31.0233 112.996 30.8365L117.373 27.9478C117.743 27.9835 118.118 28.0043 118.5 28.0043C123.47 28.0043 127.5 24.8914 127.5 21.0519C127.5 17.2126 123.47 14.0996 118.5 14.0996Z" fill="black"/>
</g>
<path d="M142.715 16.215C142.7 20.79 140.615 23.85 136.79 25.86L135.8 24.75C137.735 23.865 139.355 22.44 140.27 20.595L136.355 21.015L136.115 19.68L140.78 19.335C140.945 18.735 141.065 18.12 141.11 17.46H136.79V16.215H142.715ZM146.33 14.82V20.04H148.4V21.315H146.33V28.185H144.785V14.82H146.33ZM155.693 16.215C155.678 20.79 153.593 23.85 149.768 25.86L148.778 24.75C150.713 23.865 152.333 22.44 153.248 20.595L149.333 21.015L149.093 19.68L153.758 19.335C153.923 18.735 154.043 18.12 154.088 17.46H149.768V16.215H155.693ZM159.308 14.82V20.04H161.378V21.315H159.308V28.185H157.763V14.82H159.308ZM173.982 26.475H161.907V25.245H167.157V22.965C164.682 22.725 163.107 21.315 163.107 19.32C163.107 17.115 165.042 15.645 167.937 15.645C170.877 15.645 172.797 17.115 172.797 19.32C172.797 21.33 171.192 22.74 168.687 22.98V25.245H173.982V26.475ZM171.252 19.335C171.252 17.91 169.947 16.905 167.937 16.905C165.972 16.905 164.652 17.91 164.652 19.335C164.652 20.745 165.972 21.705 167.937 21.705C169.932 21.705 171.252 20.745 171.252 19.335ZM189.731 23.025H185.606V25.26H190.901V26.49H178.826V25.26H184.076V23.025H180.371V18.705H187.811V16.98H180.326V15.75H189.341V19.95H181.916V21.78H189.731V23.025ZM203.879 26.235H191.804V24.99H203.879V26.235ZM202.304 16.26C202.304 19.8 202.079 22.305 201.719 24.06L200.204 23.865C200.534 22.53 200.759 19.635 200.759 17.475H193.199V16.26H202.304ZM215.778 24.51H214.248V14.82H215.778V24.51ZM216.093 27.795H206.943V23.595H208.473V26.565H216.093V27.795ZM212.028 19.08C212.028 20.985 210.648 22.35 208.608 22.35C206.568 22.35 205.158 20.985 205.158 19.095C205.158 17.19 206.553 15.81 208.608 15.81C210.648 15.81 212.028 17.175 212.028 19.08ZM210.498 19.08C210.498 17.91 209.778 17.085 208.608 17.085C207.468 17.085 206.703 17.94 206.703 19.08C206.703 20.175 207.468 21.045 208.608 21.045C209.778 21.045 210.498 20.175 210.498 19.08Z" fill="black" fill-opacity="0.85"/>
</g>
<defs>
<filter id="filter0_b_92_3882" x="-4" y="-4" width="335" height="53" filterUnits="userSpaceOnUse" color-interpolation-filters="sRGB">
<feFlood flood-opacity="0" result="BackgroundImageFix"/>
<feGaussianBlur in="BackgroundImageFix" stdDeviation="2"/>
<feComposite in2="SourceAlpha" operator="in" result="effect1_backgroundBlur_92_3882"/>
<feBlend mode="normal" in="SourceGraphic" in2="effect1_backgroundBlur_92_3882" result="shape"/>
</filter>
<clipPath id="clip0_92_3882">
<rect width="17.9999" height="18" fill="white" transform="translate(109.5 13.5)"/>
</clipPath>
</defs>
</svg>
