<svg width="24" height="24" viewBox="0 0 24 24" fill="none" xmlns="http://www.w3.org/2000/svg">
<path d="M4.00003 12C3.99679 13.2422 4.28702 14.4676 4.84708 15.5765C5.51114 16.9052 6.53202 18.0227 7.79536 18.804C9.05869 19.5853 10.5146 19.9994 12 20C13.0225 20.0026 14.0336 19.8065 14.9776 19.4247C15.3737 19.2645 15.8038 19.1914 16.225 19.2628L18.2708 19.4807C18.9677 19.5549 19.5554 18.9671 19.4811 18.2701L19.2628 16.225C19.1914 15.8038 19.2645 15.3737 19.4247 14.9776C19.8065 14.0336 20.0026 13.0225 20 12C19.9994 10.5146 19.5853 9.05869 18.804 7.79536C18.0227 6.53202 16.9052 5.51114 15.5765 4.84708C14.4676 4.28702 13.2422 3.99679 12 4.00003H11.5294C9.56768 4.10825 7.7148 4.93627 6.32553 6.32553C4.93627 7.7148 4.10825 9.56768 4.00003 11.5294V12Z" stroke="#131214" stroke-width="1.5" stroke-linecap="round" stroke-linejoin="round"/>
</svg>
